<svg height="457.14286pt" viewBox="0 0 457.14286 457.14286" width="457.14286pt" xmlns="http://www.w3.org/2000/svg"><path d="m428.066406 0h-398.992187c-16.03125 0-29.074219 13.042969-29.074219 29.074219v398.992187c0 16.03125 13.042969 29.078125 29.074219 29.078125h398.992187c16.03125 0 29.078125-13.046875 29.078125-29.078125v-398.992187c0-16.03125-13.046875-29.074219-29.078125-29.074219zm-398.992187 18.285156h398.992187c6.050782 0 10.789063 4.742188 10.789063 10.789063v52.113281h-420.570313v-52.113281c0-6.046875 4.742188-10.789063 10.789063-10.789063zm398.992187 420.570313h-398.992187c-6.046875 0-10.789063-4.738281-10.789063-10.789063v-328.59375h420.570313v328.59375c0 6.050782-4.738281 10.789063-10.789063 10.789063zm0 0"/><path d="m158.78125 58.878906h251.125c5.050781 0 9.144531-4.09375 9.144531-9.140625 0-5.050781-4.09375-9.144531-9.144531-9.144531h-251.125c-5.050781 0-9.144531 4.09375-9.144531 9.144531 0 5.046875 4.09375 9.140625 9.144531 9.140625zm0 0"/><path d="m40.777344 56.226562c.820312.824219 1.824218 1.464844 2.921875 1.921876 1.1875.546874 2.382812.730468 3.570312.730468 2.375 0 4.753907-1.007812 6.394531-2.652344.917969-.914062 1.558594-1.828124 2.015626-3.015624.453124-1.097657.730468-2.285157.730468-3.472657 0-2.382812-1.003906-4.757812-2.746094-6.492187-2.558593-2.5625-6.578124-3.296875-9.964843-1.921875-1.097657.457031-2.101563 1.09375-2.921875 1.921875-1.738282 1.734375-2.652344 4.109375-2.652344 6.492187 0 1.1875.183594 2.375.636719 3.472657.460937 1.1875 1.1875 2.101562 2.015625 3.015624zm0 0"/><path d="m92.980469 58.878906c2.375 0 4.757812-1.007812 6.398437-2.652344 1.742188-1.734374 2.746094-4.113281 2.746094-6.488281 0-1.1875-.277344-2.382812-.730469-3.476562-.457031-1.191407-1.101562-2.195313-2.015625-3.015625-.820312-.828125-1.824218-1.464844-2.921875-1.921875-3.386719-1.460938-7.40625-.640625-9.964843 1.921875-.828126.820312-1.554688 1.824218-2.015626 3.015625-.453124 1.09375-.636718 2.289062-.636718 3.476562 0 2.375.914062 4.753907 2.652344 6.488281 1.734374 1.644532 4.019531 2.652344 6.488281 2.652344zm0 0"/><path d="m235.816406 169.691406c-3.464844-4.5-11.027344-4.5-14.492187 0l-66.832031 86.859375c-2.125 2.757813-2.496094 6.488281-.957032 9.613281 1.535156 3.125 4.71875 5.105469 8.203125 5.105469h27.242188v91.792969c0 5.050781 4.09375 9.144531 9.144531 9.144531h60.894531c5.046875 0 9.140625-4.09375 9.140625-9.144531v-91.792969h27.246094c3.480469 0 6.664062-1.980469 8.199219-5.105469 1.542969-3.125 1.171875-6.855468-.953125-9.613281zm23.203125 83.289063c-5.050781 0-9.144531 4.09375-9.144531 9.144531v91.792969h-42.605469v-91.792969c0-5.050781-4.09375-9.144531-9.144531-9.144531h-17.816406l48.261718-62.722657 48.265626 62.722657zm0 0"/></svg>