<svg height="512pt" viewBox="0 0 512 512" width="512pt" xmlns="http://www.w3.org/2000/svg"><path d="m469.332031 0h-426.664062c-23.554688.0273438-42.6406252 19.113281-42.667969 42.667969v426.664062c.0273438 23.554688 19.113281 42.640625 42.667969 42.667969h426.664062c23.554688-.027344 42.640625-19.113281 42.667969-42.667969v-426.664062c-.027344-23.554688-19.113281-42.6406252-42.667969-42.667969zm-426.664062 17.066406h426.664062c14.140625 0 25.601563 11.460938 25.601563 25.601563v25.597656h-477.867188v-25.597656c0-14.140625 11.460938-25.601563 25.601563-25.601563zm426.664062 477.867188h-426.664062c-14.140625 0-25.601563-11.460938-25.601563-25.601563v-384h477.867188v384c0 14.140625-11.460938 25.601563-25.601563 25.601563zm0 0"/><path d="m45.140625 48.726562c1.636719 1.558594 3.800781 2.441407 6.058594 2.472657.574219-.015625 1.144531-.070313 1.707031-.167969.535156-.09375 1.054688-.265625 1.535156-.515625.546875-.183594 1.0625-.441406 1.539063-.765625l1.277343-1.023438c.753907-.832031 1.359376-1.785156 1.792969-2.816406.476563-1.011718.710938-2.125.683594-3.242187-.015625-.574219-.074219-1.144531-.171875-1.707031-.09375-.535157-.265625-1.054688-.511719-1.535157-.167969-.527343-.429687-1.015625-.769531-1.453125-.339844-.511718-.679688-.9375-1.023438-1.363281l-1.277343-1.023437c-.476563-.324219-.992188-.582032-1.539063-.769532-.480468-.246094-1-.417968-1.535156-.511718-2.515625-.535157-5.136719.097656-7.125 1.722656-1.992188 1.625-3.136719 4.070312-3.113281 6.640625.011719 1.113281.242187 2.214843.679687 3.242187.433594 1.03125 1.039063 1.984375 1.792969 2.816406zm0 0"/><path d="m79.273438 48.726562c1.636718 1.558594 3.800781 2.441407 6.058593 2.472657.574219-.015625 1.144531-.070313 1.707031-.167969.535157-.09375 1.054688-.265625 1.535157-.515625.546875-.183594 1.0625-.441406 1.539062-.765625l1.277344-1.023438c.753906-.832031 1.359375-1.785156 1.792969-2.816406.480468-1.011718.710937-2.125.683594-3.242187-.015626-.574219-.070313-1.144531-.171876-1.707031-.09375-.535157-.265624-1.054688-.511718-1.535157-.167969-.527343-.429688-1.015625-.769532-1.453125-.339843-.511718-.679687-.9375-1.023437-1.363281l-1.277344-1.023437c-.476562-.324219-.992187-.582032-1.539062-.769532-.480469-.246094-1-.417968-1.535157-.511718-2.511718-.535157-5.132812.097656-7.125 1.722656-1.992187 1.625-3.136718 4.070312-3.113281 6.640625.011719 1.113281.246094 2.214843.683594 3.242187.429687 1.03125 1.039063 1.984375 1.789063 2.816406zm0 0"/><path d="m113.40625 48.726562c1.636719 1.558594 3.800781 2.441407 6.058594 2.472657.574218-.015625 1.144531-.070313 1.707031-.167969.535156-.09375 1.054687-.265625 1.539063-.515625.542968-.183594 1.058593-.441406 1.535156-.765625l1.277344-1.023438c.753906-.832031 1.359374-1.785156 1.792968-2.816406.480469-1.011718.714844-2.125.683594-3.242187-.015625-.574219-.070312-1.144531-.171875-1.707031-.089844-.535157-.265625-1.054688-.511719-1.535157-.167968-.527343-.429687-1.015625-.765625-1.453125-.34375-.511718-.683593-.9375-1.027343-1.363281l-1.277344-1.023437c-.476563-.324219-.992188-.582032-1.535156-.769532-.484376-.246094-1.003907-.417968-1.539063-.511718-2.511719-.535157-5.132813.097656-7.125 1.722656s-3.136719 4.070312-3.113281 6.640625c.011718 1.113281.246094 2.214843.683594 3.242187.433593 1.03125 1.039062 1.984375 1.789062 2.816406zm0 0"/><path d="m448.316406 427.996094-89.917968-57.214844v-106.246094c-.023438-.476562-.085938-.945312-.1875-1.410156 0-.203125 0-.402344-.085938-.605469-.226562-.929687-.609375-1.8125-1.132812-2.609375-.128907-.199218-.28125-.351562-.425782-.539062-.507812-.65625-1.113281-1.230469-1.792968-1.707032-.128907-.09375-.195313-.230468-.324219-.316406l-89.914063-57.234375v-72.113281c0-4.710938-3.824218-8.535156-8.535156-8.535156s-8.535156 3.824218-8.535156 8.535156v72.113281l-25.597656 16.292969v-62.804688c0-4.714843-3.820313-8.535156-8.535157-8.535156-4.710937 0-8.53125 3.820313-8.53125 8.535156v73.667969l-34.132812 21.714844v-61.25c0-4.714844-3.820313-8.535156-8.535157-8.535156-4.710937 0-8.53125 3.820312-8.53125 8.535156v183.046875l-89.917968 57.175781c-3.976563 2.527344-5.148438 7.804688-2.617188 11.78125 2.527344 3.980469 7.804688 5.152344 11.78125 2.621094l89.285156-56.773437 32.257813 20.523437-53.90625 34.304687c-3.980469 2.53125-5.15625 7.808594-2.625 11.789063s7.808594 5.15625 11.789063 2.625l59.734374-38.007813c.253907-.214843.492188-.445312.714844-.691406l30.003906 19.070313-22.816406 14.507812c-3.914062 2.554688-5.042968 7.785157-2.53125 11.726563 2.507813 3.941406 7.722656 5.132812 11.695313 2.667968l29.550781-18.78125 29.550781 18.773438c2.570313 1.753906 5.894531 1.96875 8.667969.558594 2.777344-1.40625 4.566406-4.214844 4.667969-7.324219.105469-3.113281-1.496094-6.03125-4.171875-7.621094l-22.816406-14.507812 30.003906-19.089844c.222656.246094.460937.476563.714844.691406l59.734374 38.007813c2.570313 1.679687 5.847657 1.847656 8.578126.441406 2.730468-1.410156 4.492187-4.179688 4.613281-7.25.121093-3.070312-1.417969-5.964844-4.027344-7.585938l-53.90625-34.304687 32.257813-20.523437 89.285156 56.816406c2.570312 1.636718 5.824218 1.777344 8.527344.367187 2.703124-1.410156 4.449218-4.15625 4.582031-7.203125.132812-3.046875-1.371094-5.929687-3.945313-7.570312zm-114.347656-163.460938-77.96875 49.609375-77.96875-49.609375 77.96875-49.613281zm-163.300781 15.546875 76.796875 48.871094v90.699219l-76.796875-48.871094zm170.664062 90.699219-76.796875 48.871094v-90.699219l76.796875-48.871094zm0 0"/><path d="m85.332031 187.734375c4.714844 0 8.535157-3.820313 8.535157-8.535156 0-4.710938-3.820313-8.53125-8.535157-8.53125-14.136719 0-25.597656-11.460938-25.597656-25.601563 0-14.136718 11.460937-25.601562 25.597656-25.601562 14.140625 0 25.601563 11.464844 25.601563 25.601562 0 4.714844 3.820312 8.535156 8.53125 8.535156 4.714844 0 8.535156-3.820312 8.535156-8.535156 0-23.5625-19.101562-42.667968-42.667969-42.667968-23.5625 0-42.664062 19.105468-42.664062 42.667968s19.101562 42.667969 42.664062 42.667969zm0 0"/><path d="m93.867188 281.601562c0-4.714843-3.820313-8.535156-8.535157-8.535156-14.136719 0-25.597656-11.460937-25.597656-25.601562 0-14.136719 11.460937-25.597656 25.597656-25.597656 14.140625 0 25.601563 11.460937 25.601563 25.597656 0 4.714844 3.820312 8.535156 8.53125 8.535156 4.714844 0 8.535156-3.820312 8.535156-8.535156 0-23.5625-19.101562-42.664063-42.667969-42.664063-23.5625 0-42.664062 19.101563-42.664062 42.664063 0 23.566406 19.101562 42.667968 42.664062 42.667968 2.265625 0 4.433594-.898437 6.035157-2.5 1.601562-1.597656 2.5-3.769531 2.5-6.03125zm0 0"/><path d="m460.800781 102.398438h-51.199219c-9.425781 0-17.066406 7.640624-17.066406 17.066406v221.867187c0 9.425781 7.640625 17.066407 17.066406 17.066407h51.199219c9.425781 0 17.066407-7.640626 17.066407-17.066407v-221.867187c0-9.425782-7.640626-17.066406-17.066407-17.066406zm0 17.066406v17.070312h-51.199219v-17.070312zm-51.199219 34.136718h17.066407v17.066407c-4.714844 0-8.535157 3.820312-8.535157 8.53125 0 4.714843 3.820313 8.535156 8.535157 8.535156v17.066406c-4.714844 0-8.535157 3.820313-8.535157 8.53125 0 4.714844 3.820313 8.535157 8.535157 8.535157v17.066406c-4.714844 0-8.535157 3.820312-8.535157 8.53125 0 4.714844 3.820313 8.535156 8.535157 8.535156v17.066406c-4.714844 0-8.535157 3.820313-8.535157 8.535156 0 4.710938 3.820313 8.53125 8.535157 8.53125v17.066407c-4.714844 0-8.535157 3.820312-8.535157 8.535156 0 4.710937 3.820313 8.53125 8.535157 8.53125v17.066406h-17.066407zm34.132813 187.730469v-17.066406c4.710937 0 8.53125-3.820313 8.53125-8.53125 0-4.714844-3.820313-8.535156-8.53125-8.535156v-17.066407c4.710937 0 8.53125-3.820312 8.53125-8.53125 0-4.714843-3.820313-8.535156-8.53125-8.535156v-17.066406c4.710937 0 8.53125-3.820312 8.53125-8.535156 0-4.710938-3.820313-8.53125-8.53125-8.53125v-17.066406c4.710937 0 8.53125-3.820313 8.53125-8.535157 0-4.710937-3.820313-8.53125-8.53125-8.53125v-17.066406c4.710937 0 8.53125-3.820313 8.53125-8.535156 0-4.710938-3.820313-8.53125-8.53125-8.53125v-17.066407h17.066406v187.730469zm0 0"/></svg>