<?xml version="1.0" encoding="iso-8859-1"?>
<!-- Generator: Adobe Illustrator 19.0.0, SVG Export Plug-In . SVG Version: 6.00 Build 0)  -->
<svg version="1.1" id="Capa_1" xmlns="http://www.w3.org/2000/svg" xmlns:xlink="http://www.w3.org/1999/xlink" x="0px" y="0px"
	 viewBox="0 0 512 512" style="enable-background:new 0 0 512 512;" xml:space="preserve">
<g>
	<g>
		<path d="M504.5,184.5c-4.143,0-7.5,3.357-7.5,7.5v275H15v-19c0-4.143-3.357-7.5-7.5-7.5S0,443.857,0,448v26.5v18
			C0,503.252,8.748,512,19.5,512h473c10.752,0,19.5-8.748,19.5-19.5v-18V192C512,187.857,508.643,184.5,504.5,184.5z M497,492.5
			c0,2.481-2.019,4.5-4.5,4.5h-473c-2.481,0-4.5-2.019-4.5-4.5V482h482V492.5z"/>
	</g>
</g>
<g>
	<g>
		<path d="M492.5,0h-304h-169C8.748,0,0,8.748,0,19.5v68v30v298c0,4.143,3.357,7.5,7.5,7.5s7.5-3.357,7.5-7.5V125h49.5
			c4.143,0,7.5-3.357,7.5-7.5s-3.357-7.5-7.5-7.5H15V95h173.5H497v15H96c-4.143,0-7.5,3.357-7.5,7.5s3.357,7.5,7.5,7.5h401v34.667
			c0,4.143,3.357,7.5,7.5,7.5s7.5-3.357,7.5-7.5V117.5v-30v-68C512,8.748,503.252,0,492.5,0z M181,80H15V19.5
			c0-2.481,2.019-4.5,4.5-4.5H181V80z M497,80H196V15h296.5c2.481,0,4.5,2.019,4.5,4.5V80z"/>
	</g>
</g>
<g>
	<g>
		<path d="M47,25c-12.406,0-22.5,10.094-22.5,22.5S34.594,70,47,70s22.5-10.094,22.5-22.5S59.406,25,47,25z M47,55
			c-4.136,0-7.5-3.364-7.5-7.5S42.864,40,47,40s7.5,3.364,7.5,7.5S51.136,55,47,55z"/>
	</g>
</g>
<g>
	<g>
		<path d="M99,25c-12.406,0-22.5,10.094-22.5,22.5S86.594,70,99,70s22.5-10.094,22.5-22.5S111.406,25,99,25z M99,55
			c-4.136,0-7.5-3.364-7.5-7.5S94.864,40,99,40s7.5,3.364,7.5,7.5S103.136,55,99,55z"/>
	</g>
</g>
<g>
	<g>
		<path d="M150,25c-12.406,0-22.5,10.094-22.5,22.5S137.594,70,150,70s22.5-10.094,22.5-22.5S162.406,25,150,25z M150,55
			c-4.136,0-7.5-3.364-7.5-7.5s3.364-7.5,7.5-7.5s7.5,3.364,7.5,7.5S154.136,55,150,55z"/>
	</g>
</g>
<g>
	<g>
		<path d="M474.5,264.088c-4.143,0-7.5,3.357-7.5,7.5c-4.143,0-7.5,3.357-7.5,7.5s3.357,7.5,7.5,7.5h7.5c4.143,0,7.5-3.357,7.5-7.5
			v-7.5C482,267.445,478.643,264.088,474.5,264.088z"/>
	</g>
</g>
<g>
	<g>
		<path d="M474.5,226.213c-4.143,0-7.5,3.357-7.5,7.5v12.625c0,4.143,3.357,7.5,7.5,7.5s7.5-3.357,7.5-7.5v-12.625
			C482,229.57,478.643,226.213,474.5,226.213z"/>
	</g>
</g>
<g>
	<g>
		<path d="M474.5,188.338c-4.143,0-7.5,3.357-7.5,7.5v12.625c0,4.143,3.357,7.5,7.5,7.5s7.5-3.357,7.5-7.5v-12.625
			C482,191.695,478.643,188.338,474.5,188.338z"/>
	</g>
</g>
<g>
	<g>
		<path d="M474.5,155.588H467c-4.143,0-7.5,3.357-7.5,7.5s3.357,7.5,7.5,7.5c0,4.143,3.357,7.5,7.5,7.5s7.5-3.357,7.5-7.5v-7.5
			C482,158.945,478.643,155.588,474.5,155.588z"/>
	</g>
</g>
<g>
	<g>
		<path d="M401.091,155.588h-13.182c-4.143,0-7.5,3.357-7.5,7.5s3.358,7.5,7.5,7.5h13.182c4.143,0,7.5-3.357,7.5-7.5
			S405.234,155.588,401.091,155.588z"/>
	</g>
</g>
<g>
	<g>
		<path d="M440.637,155.588h-13.182c-4.143,0-7.5,3.357-7.5,7.5s3.358,7.5,7.5,7.5h13.182c4.143,0,7.5-3.357,7.5-7.5
			S444.78,155.588,440.637,155.588z"/>
	</g>
</g>
<g>
	<g>
		<path d="M361.546,155.588h-13.182c-4.143,0-7.5,3.357-7.5,7.5s3.358,7.5,7.5,7.5h13.182c4.143,0,7.5-3.357,7.5-7.5
			S365.689,155.588,361.546,155.588z"/>
	</g>
</g>
<g>
	<g>
		<path d="M322,155.588h-7.5c-4.143,0-7.5,3.357-7.5,7.5v7.5c0,4.142,3.357,7.5,7.5,7.5s7.5-3.357,7.5-7.5
			c4.143,0,7.5-3.357,7.5-7.5S326.143,155.588,322,155.588z"/>
	</g>
</g>
<g>
	<g>
		<path d="M314.5,188.338c-4.143,0-7.5,3.357-7.5,7.5v12.625c0,4.143,3.357,7.5,7.5,7.5s7.5-3.357,7.5-7.5v-12.625
			C322,191.695,318.643,188.338,314.5,188.338z"/>
	</g>
</g>
<g>
	<g>
		<path d="M314.5,226.213c-4.143,0-7.5,3.357-7.5,7.5v12.625c0,4.143,3.357,7.5,7.5,7.5s7.5-3.357,7.5-7.5v-12.625
			C322,229.57,318.643,226.213,314.5,226.213z"/>
	</g>
</g>
<g>
	<g>
		<path d="M322,271.588c0-4.143-3.357-7.5-7.5-7.5s-7.5,3.357-7.5,7.5v7.5c0,4.143,3.357,7.5,7.5,7.5h7.5c4.143,0,7.5-3.357,7.5-7.5
			S326.143,271.588,322,271.588z"/>
	</g>
</g>
<g>
	<g>
		<path d="M361.545,271.588h-13.182c-4.143,0-7.5,3.357-7.5,7.5s3.358,7.5,7.5,7.5h13.182c4.143,0,7.5-3.357,7.5-7.5
			S365.688,271.588,361.545,271.588z"/>
	</g>
</g>
<g>
	<g>
		<path d="M401.091,271.588h-13.182c-4.143,0-7.5,3.357-7.5,7.5s3.358,7.5,7.5,7.5h13.182c4.143,0,7.5-3.357,7.5-7.5
			S405.234,271.588,401.091,271.588z"/>
	</g>
</g>
<g>
	<g>
		<path d="M440.636,271.588h-13.182c-4.143,0-7.5,3.357-7.5,7.5s3.358,7.5,7.5,7.5h13.182c4.143,0,7.5-3.357,7.5-7.5
			S444.779,271.588,440.636,271.588z"/>
	</g>
</g>
<g>
	<g>
		<path d="M279.731,415c-4.143,0-7.5,3.357-7.5,7.5c-4.143,0-7.5,3.357-7.5,7.5s3.358,7.5,7.5,7.5h7.5c4.143,0,7.5-3.357,7.5-7.5
			v-7.5C287.231,418.357,283.874,415,279.731,415z"/>
	</g>
</g>
<g>
	<g>
		<path d="M279.731,237.118c-4.143,0-7.5,3.357-7.5,7.5v14.823c0,4.143,3.357,7.5,7.5,7.5s7.5-3.357,7.5-7.5v-14.823
			C287.231,240.475,283.874,237.118,279.731,237.118z"/>
	</g>
</g>
<g>
	<g>
		<path d="M279.731,281.589c-4.143,0-7.5,3.357-7.5,7.5v14.823c0,4.143,3.357,7.5,7.5,7.5s7.5-3.357,7.5-7.5v-14.823
			C287.231,284.946,283.874,281.589,279.731,281.589z"/>
	</g>
</g>
<g>
	<g>
		<path d="M279.731,192.647c-4.143,0-7.5,3.357-7.5,7.5v14.823c0,4.143,3.357,7.5,7.5,7.5s7.5-3.357,7.5-7.5v-14.823
			C287.231,196.004,283.874,192.647,279.731,192.647z"/>
	</g>
</g>
<g>
	<g>
		<path d="M279.731,370.53c-4.143,0-7.5,3.357-7.5,7.5v14.823c0,4.143,3.357,7.5,7.5,7.5s7.5-3.357,7.5-7.5V378.03
			C287.231,373.888,283.874,370.53,279.731,370.53z"/>
	</g>
</g>
<g>
	<g>
		<path d="M279.731,326.06c-4.143,0-7.5,3.357-7.5,7.5v14.823c0,4.143,3.357,7.5,7.5,7.5s7.5-3.357,7.5-7.5V333.56
			C287.231,329.417,283.874,326.06,279.731,326.06z"/>
	</g>
</g>
<g>
	<g>
		<path d="M279.731,155.5h-7.5c-4.143,0-7.5,3.357-7.5,7.5s3.357,7.5,7.5,7.5c0,4.143,3.357,7.5,7.5,7.5s7.5-3.357,7.5-7.5V163
			C287.231,158.857,283.874,155.5,279.731,155.5z"/>
	</g>
</g>
<g>
	<g>
		<path d="M239.769,155.5h-16.23c-4.143,0-7.5,3.357-7.5,7.5s3.357,7.5,7.5,7.5h16.23c4.143,0,7.5-3.357,7.5-7.5
			S243.912,155.5,239.769,155.5z"/>
	</g>
</g>
<g>
	<g>
		<path d="M191.077,155.5h-16.231c-4.143,0-7.5,3.357-7.5,7.5s3.357,7.5,7.5,7.5h16.231c4.143,0,7.5-3.357,7.5-7.5
			S195.22,155.5,191.077,155.5z"/>
	</g>
</g>
<g>
	<g>
		<path d="M93.692,155.5H77.461c-4.143,0-7.5,3.357-7.5,7.5s3.357,7.5,7.5,7.5h16.231c4.143,0,7.5-3.357,7.5-7.5
			S97.835,155.5,93.692,155.5z"/>
	</g>
</g>
<g>
	<g>
		<path d="M142.385,155.5h-16.231c-4.143,0-7.5,3.357-7.5,7.5s3.357,7.5,7.5,7.5h16.231c4.143,0,7.5-3.357,7.5-7.5
			S146.527,155.5,142.385,155.5z"/>
	</g>
</g>
<g>
	<g>
		<path d="M45,155.5h-7.5c-4.143,0-7.5,3.357-7.5,7.5v7.5c0,4.143,3.357,7.5,7.5,7.5s7.5-3.357,7.5-7.5c4.143,0,7.5-3.357,7.5-7.5
			S49.143,155.5,45,155.5z"/>
	</g>
</g>
<g>
	<g>
		<path d="M37.5,192.647c-4.143,0-7.5,3.357-7.5,7.5v14.823c0,4.143,3.357,7.5,7.5,7.5s7.5-3.357,7.5-7.5v-14.823
			C45,196.004,41.643,192.647,37.5,192.647z"/>
	</g>
</g>
<g>
	<g>
		<path d="M37.5,237.117c-4.143,0-7.5,3.357-7.5,7.5v14.823c0,4.143,3.357,7.5,7.5,7.5s7.5-3.357,7.5-7.5v-14.823
			C45,240.474,41.643,237.117,37.5,237.117z"/>
	</g>
</g>
<g>
	<g>
		<path d="M37.5,281.588c-4.143,0-7.5,3.357-7.5,7.5v14.823c0,4.143,3.357,7.5,7.5,7.5s7.5-3.357,7.5-7.5v-14.823
			C45,284.945,41.643,281.588,37.5,281.588z"/>
	</g>
</g>
<g>
	<g>
		<path d="M37.5,370.53c-4.143,0-7.5,3.357-7.5,7.5v14.823c0,4.143,3.357,7.5,7.5,7.5s7.5-3.357,7.5-7.5V378.03
			C45,373.887,41.643,370.53,37.5,370.53z"/>
	</g>
</g>
<g>
	<g>
		<path d="M37.5,326.059c-4.143,0-7.5,3.357-7.5,7.5v14.823c0,4.143,3.357,7.5,7.5,7.5s7.5-3.357,7.5-7.5v-14.823
			C45,329.416,41.643,326.059,37.5,326.059z"/>
	</g>
</g>
<g>
	<g>
		<path d="M45,422.5c0-4.143-3.357-7.5-7.5-7.5s-7.5,3.357-7.5,7.5v7.5c0,4.143,3.357,7.5,7.5,7.5H45c4.143,0,7.5-3.357,7.5-7.5
			S49.143,422.5,45,422.5z"/>
	</g>
</g>
<g>
	<g>
		<path d="M191.078,422.5h-16.231c-4.143,0-7.5,3.357-7.5,7.5s3.357,7.5,7.5,7.5h16.231c4.143,0,7.5-3.357,7.5-7.5
			S195.221,422.5,191.078,422.5z"/>
	</g>
</g>
<g>
	<g>
		<path d="M93.692,422.5h-16.23c-4.143,0-7.5,3.357-7.5,7.5s3.357,7.5,7.5,7.5h16.23c4.143,0,7.5-3.357,7.5-7.5
			S97.835,422.5,93.692,422.5z"/>
	</g>
</g>
<g>
	<g>
		<path d="M142.385,422.5h-16.23c-4.143,0-7.5,3.357-7.5,7.5s3.357,7.5,7.5,7.5h16.23c4.143,0,7.5-3.357,7.5-7.5
			S146.527,422.5,142.385,422.5z"/>
	</g>
</g>
<g>
	<g>
		<path d="M239.77,422.5h-16.231c-4.143,0-7.5,3.357-7.5,7.5s3.357,7.5,7.5,7.5h16.231c4.143,0,7.5-3.357,7.5-7.5
			S243.913,422.5,239.77,422.5z"/>
	</g>
</g>
<g>
	<g>
		<path d="M474.5,415c-4.143,0-7.5,3.357-7.5,7.5c-4.143,0-7.5,3.357-7.5,7.5s3.357,7.5,7.5,7.5h7.5c4.143,0,7.5-3.357,7.5-7.5v-7.5
			C482,418.357,478.643,415,474.5,415z"/>
	</g>
</g>
<g>
	<g>
		<path d="M474.5,377.125c-4.143,0-7.5,3.357-7.5,7.5v12.625c0,4.143,3.357,7.5,7.5,7.5s7.5-3.357,7.5-7.5v-12.625
			C482,380.482,478.643,377.125,474.5,377.125z"/>
	</g>
</g>
<g>
	<g>
		<path d="M474.5,339.25c-4.143,0-7.5,3.357-7.5,7.5v12.625c0,4.143,3.357,7.5,7.5,7.5s7.5-3.357,7.5-7.5V346.75
			C482,342.607,478.643,339.25,474.5,339.25z"/>
	</g>
</g>
<g>
	<g>
		<path d="M474.5,306.5H467c-4.143,0-7.5,3.357-7.5,7.5s3.357,7.5,7.5,7.5c0,4.143,3.357,7.5,7.5,7.5s7.5-3.357,7.5-7.5V314
			C482,309.857,478.643,306.5,474.5,306.5z"/>
	</g>
</g>
<g>
	<g>
		<path d="M401.091,306.5h-13.182c-4.143,0-7.5,3.357-7.5,7.5s3.358,7.5,7.5,7.5h13.182c4.143,0,7.5-3.357,7.5-7.5
			S405.234,306.5,401.091,306.5z"/>
	</g>
</g>
<g>
	<g>
		<path d="M361.546,306.5h-13.182c-4.143,0-7.5,3.357-7.5,7.5s3.357,7.5,7.5,7.5h13.182c4.143,0,7.5-3.357,7.5-7.5
			S365.688,306.5,361.546,306.5z"/>
	</g>
</g>
<g>
	<g>
		<path d="M440.637,306.5h-13.182c-4.143,0-7.5,3.357-7.5,7.5s3.357,7.5,7.5,7.5h13.182c4.143,0,7.5-3.357,7.5-7.5
			S444.779,306.5,440.637,306.5z"/>
	</g>
</g>
<g>
	<g>
		<path d="M322,306.5h-7.5c-4.143,0-7.5,3.357-7.5,7.5v7.5c0,4.143,3.357,7.5,7.5,7.5s7.5-3.357,7.5-7.5c4.143,0,7.5-3.357,7.5-7.5
			S326.143,306.5,322,306.5z"/>
	</g>
</g>
<g>
	<g>
		<path d="M314.5,339.25c-4.143,0-7.5,3.357-7.5,7.5v12.625c0,4.143,3.357,7.5,7.5,7.5s7.5-3.357,7.5-7.5V346.75
			C322,342.607,318.643,339.25,314.5,339.25z"/>
	</g>
</g>
<g>
	<g>
		<path d="M314.5,377.125c-4.143,0-7.5,3.357-7.5,7.5v12.625c0,4.143,3.357,7.5,7.5,7.5s7.5-3.357,7.5-7.5v-12.625
			C322,380.482,318.643,377.125,314.5,377.125z"/>
	</g>
</g>
<g>
	<g>
		<path d="M322,422.5c0-4.143-3.357-7.5-7.5-7.5s-7.5,3.357-7.5,7.5v7.5c0,4.143,3.357,7.5,7.5,7.5h7.5c4.143,0,7.5-3.357,7.5-7.5
			S326.143,422.5,322,422.5z"/>
	</g>
</g>
<g>
	<g>
		<path d="M440.636,422.5h-13.182c-4.143,0-7.5,3.357-7.5,7.5s3.358,7.5,7.5,7.5h13.182c4.143,0,7.5-3.357,7.5-7.5
			S444.779,422.5,440.636,422.5z"/>
	</g>
</g>
<g>
	<g>
		<path d="M401.091,422.5h-13.182c-4.143,0-7.5,3.357-7.5,7.5s3.358,7.5,7.5,7.5h13.182c4.143,0,7.5-3.357,7.5-7.5
			S405.234,422.5,401.091,422.5z"/>
	</g>
</g>
<g>
	<g>
		<path d="M361.545,422.5h-13.182c-4.143,0-7.5,3.357-7.5,7.5s3.358,7.5,7.5,7.5h13.182c4.143,0,7.5-3.357,7.5-7.5
			S365.688,422.5,361.545,422.5z"/>
	</g>
</g>
<g>
</g>
<g>
</g>
<g>
</g>
<g>
</g>
<g>
</g>
<g>
</g>
<g>
</g>
<g>
</g>
<g>
</g>
<g>
</g>
<g>
</g>
<g>
</g>
<g>
</g>
<g>
</g>
<g>
</g>
</svg>
