<?xml version="1.0" encoding="UTF-8"?>
<svg xmlns="http://www.w3.org/2000/svg" xmlns:xlink="http://www.w3.org/1999/xlink" width="512" height="512" viewBox="0 0 60 60" version="1.1"><!-- Generator: Sketch 51.3 (57544) - http://www.bohemiancoding.com/sketch --><title>022 - RGB Monitor</title><desc>Created with Sketch.</desc><defs/><g id="Page-1" stroke="none" stroke-width="1" fill="none" fill-rule="evenodd"><g id="022---RGB-Monitor" fill="#000000" fill-rule="nonzero"><path d="M57,0 L3,0 C1.34314575,-1.01453063e-16 2.02906125e-16,1.34314575 0,3 L0,45 C2.02906125e-16,46.6568542 1.34314575,48 3,48 L22,48 L22,52 C19.2399468,52.0033061 17.0033061,54.2399468 17,57 L17,59 C17,59.5522847 17.4477153,60 18,60 L42,60 C42.5522847,60 43,59.5522847 43,59 L43,57 C42.9966939,54.2399468 40.7600532,52.0033061 38,52 L38,48 L57,48 C58.6568542,48 60,46.6568542 60,45 L60,3 C60,1.34314575 58.6568542,1.01453063e-16 57,0 Z M2,3 C2,2.44771525 2.44771525,2 3,2 L57,2 C57.5522847,2 58,2.44771525 58,3 L58,38 L2,38 L2,3 Z M41,57 L41,58 L19,58 L19,57 C19,55.3431458 20.3431458,54 22,54 L38,54 C39.6568542,54 41,55.3431458 41,57 Z M36,52 L24,52 L24,48 L36,48 L36,52 Z M58,45 C58,45.5522847 57.5522847,46 57,46 L3,46 C2.44771525,46 2,45.5522847 2,45 L2,40 L58,40 L58,45 Z" id="Shape"/><path d="M28,44 L32,44 C32.5522847,44 33,43.5522847 33,43 C33,42.4477153 32.5522847,42 32,42 L28,42 C27.4477153,42 27,42.4477153 27,43 C27,43.5522847 27.4477153,44 28,44 Z" id="Shape"/><path d="M53,50 C49.1358343,50.0044086 46.0044086,53.1358343 46,57 L46,58 C46,59.1045695 46.8954305,60 48,60 L58,60 C59.1045695,60 60,59.1045695 60,58 L60,57 C59.9955914,53.1358343 56.8641657,50.0044086 53,50 Z M58,58 L48,58 L48,57 C48.0029983,54.6248992 49.6735832,52.5784327 52,52.1 L52,54 C52,54.5522847 52.4477153,55 53,55 C53.5522847,55 54,54.5522847 54,54 L54,52.1 C56.3264168,52.5784327 57.9970017,54.6248992 58,57 L58,58 Z" id="Shape"/><path d="M39.958,15.821 C39.981,15.549 40,15.277 40,15 C40,9.4771525 35.5228475,5 30,5 C24.4771525,5 20,9.4771525 20,15 C20,15.277 20.019,15.549 20.042,15.821 C16.4944735,17.3413294 14.1396064,20.7686578 13.9926012,24.6254356 C13.8455961,28.4822135 15.9327373,32.0788537 19.3542411,33.864815 C22.7757448,35.6507763 26.9198505,35.3067311 30,32.981 C33.0801964,35.2987549 37.2189973,35.6377522 40.6352914,33.8521061 C44.0515856,32.0664601 46.135865,28.4747514 45.991171,24.6226531 C45.846477,20.7705548 43.4986247,17.3453276 39.958,15.821 Z M22,15 C22,10.581722 25.581722,7 30,7 C34.418278,7 38,10.581722 38,15 C38,15.068 37.992,15.133 37.99,15.2 C37.3349708,15.0673045 36.6683347,15.0003059 36,15 C33.8333867,15.000968 31.726445,15.7099539 30,17.019 C28.273555,15.7099539 26.1666133,15.000968 24,15 C23.3316653,15.0003059 22.6650292,15.0673045 22.01,15.2 C22.008,15.133 22,15.068 22,15 Z M32,25 C31.9997008,26.9432388 31.2883025,28.8191962 30,30.274 C28.7116975,28.8191962 28.0002992,26.9432388 28,25 C28,24.932 28.008,24.867 28.01,24.8 C29.3232656,25.0666735 30.6767344,25.0666735 31.99,24.8 C31.992,24.867 32,24.932 32,25 Z M30,23 C29.4321142,22.9988728 28.8659488,22.9375298 28.311,22.817 C28.6365515,21.6736464 29.2136289,20.6175502 30,19.726 C30.7863711,20.6175502 31.3634485,21.6736464 31.689,22.817 C31.1340512,22.9375298 30.5678858,22.9988728 30,23 Z M26.421,22.144 C24.4180748,21.1371548 22.9277448,19.338243 22.311,17.183 C22.8659488,17.0624702 23.4321142,17.0011272 24,17 C25.6101201,16.9991129 27.1825301,17.4873307 28.509,18.4 C27.5498324,19.4818896 26.8373751,20.7593992 26.421,22.144 Z M31.491,18.398 C32.8177002,17.4860392 34.390092,16.9985245 36,17 C36.5678858,17.0011272 37.1340512,17.0624702 37.689,17.183 C37.0722552,19.338243 35.5819252,21.1371548 33.579,22.144 C33.1626249,20.7593992 32.4501676,19.4818896 31.491,18.4 L31.491,18.398 Z M16,25 C16.0040755,21.9742246 17.7149046,19.2096547 20.421,17.856 C21.2715837,20.688877 23.3282682,23.0024183 26.042,24.179 C26.019,24.451 26,24.723 26,25 C26.0010924,27.4327965 26.8937065,29.7808445 28.509,31.6 C26.0613508,33.2760605 22.8867731,33.4586853 20.2630686,32.074366 C17.639364,30.6900468 15.9981374,27.9665067 16,25 Z M36,33 C34.3898799,33.0008871 32.8174699,32.5126693 31.491,31.6 C33.1062935,29.7808445 33.9989076,27.4327965 34,25 C34,24.723 33.981,24.451 33.958,24.179 C36.6717318,23.0024183 38.7284163,20.688877 39.579,17.856 C42.8975232,19.513117 44.6399544,23.2355348 43.7868403,26.8453588 C42.9337262,30.4551827 39.7092612,33.0037679 36,33 Z" id="Shape"/><path d="M7,4 L5,4 C4.44771525,4 4,4.44771525 4,5 C4,5.55228475 4.44771525,6 5,6 L7,6 C7.55228475,6 8,5.55228475 8,5 C8,4.44771525 7.55228475,4 7,4 Z" id="Shape"/><path d="M18,5 C18,4.44771525 17.5522847,4 17,4 L11,4 C10.4477153,4 10,4.44771525 10,5 C10,5.55228475 10.4477153,6 11,6 L17,6 C17.5522847,6 18,5.55228475 18,5 Z" id="Shape"/></g></g></svg>
