<svg height="512pt" viewBox="0 0 512 512.00003" width="512pt" xmlns="http://www.w3.org/2000/svg"><path d="m39.199219 187.800781c-10.523438.621094-20.402344 5.28125-27.570313 13.015625-8.136718 8.761719-12.3125 20.488282-11.5390622 32.425782 1.5078122 22.449218 20.1679682 39.882812 42.6679682 39.859374h16.972657c0 4.710938 3.820312 8.53125 8.535156 8.53125 4.710937 0 8.53125-3.820312 8.53125-8.53125h115.644531c11.011719-.027343 21.457032-4.890624 28.570313-13.296874 7.488281-8.84375 10.738281-20.523438 8.890625-31.964844-2.28125-14.671875-12.792969-26.730469-27.015625-30.992188-3.054688-.898437-6.207031-1.398437-9.386719-1.492187.1875-2.984375.082031-5.980469-.316406-8.945313-2.445313-18.425781-16.648438-33.085937-34.988282-36.113281-7.261718-1.109375-14.691406-.226563-21.492187 2.5625-10.636719-10.476563-24.96875-16.339844-39.894531-16.324219-29.28125.386719-53.828125 22.230469-57.609375 51.265625zm101.929687-18.261719c4.460938-2.3125 9.542969-3.148437 14.507813-2.386718 10.832031 1.945312 19.171875 10.652344 20.660156 21.554687.425781 3.023438.332031 6.101563-.273437 9.09375-.816407 3.988281.351562 8.125 3.132812 11.09375 2.71875 2.882813 6.664062 4.265625 10.589844 3.714844 2.800781-.382813 5.652344-.164063 8.359375.636719 7.847656 2.453125 13.632812 9.132812 14.945312 17.246094 1.078125 6.527343-.753906 13.195312-5.011719 18.253906-3.890624 4.578125-9.589843 7.226562-15.597656 7.253906h-149.675781c-13.496094.03125-24.699219-10.425781-25.597656-23.894531-.527344-7.222657 1.992187-14.339844 6.945312-19.625 4.515625-4.886719 10.863281-7.671875 17.519531-7.679688h1.882813c6.476563 0 11.839844-5.019531 12.273437-11.476562 1.128907-21.957031 19.039063-39.300781 41.019532-39.722657 11.332031 0 22.128906 4.804688 29.722656 13.214844 3.703125 4.082032 9.671875 5.195313 14.597656 2.722656zm0 0"/><path d="m375.292969 152.804688c-6.796875-2.792969-14.230469-3.679688-21.496094-2.558594-18.335937 3.027344-32.542969 17.6875-34.984375 36.113281-.398438 2.964844-.507812 5.957031-.316406 8.941406-3.179688.097657-6.335938.597657-9.386719 1.496094-14.238281 4.269531-24.753906 16.351563-27.015625 31.042969-1.851562 11.441406 1.398438 23.121094 8.890625 31.964844 7.117187 8.394531 17.5625 13.242187 28.570313 13.261718h115.644531c0 4.714844 3.820312 8.535156 8.53125 8.535156 4.714843 0 8.535156-3.820312 8.535156-8.535156h16.960937c22.5.023438 41.164063-17.410156 42.667969-39.859375.773438-11.933593-3.398437-23.660156-11.535156-32.425781-7.167969-7.734375-17.046875-12.398438-27.574219-13.015625-3.796875-29.019531-28.332031-50.84375-57.597656-51.230469-14.921875-.027344-29.25 5.816406-39.894531 16.269532zm80.921875 40.492187c.421875 6.464844 5.785156 11.496094 12.261718 11.503906h1.878907c6.667969-.003906 13.035156 2.78125 17.5625 7.679688 4.949219 5.285156 7.46875 12.402343 6.945312 19.625-.902343 13.480469-12.125 23.941406-25.636719 23.894531h-149.671874c-6.011719-.035156-11.707032-2.699219-15.589844-7.289062-4.257813-5.054688-6.089844-11.722657-5.011719-18.242188 1.308594-8.117188 7.089844-14.796875 14.933594-17.253906 1.84375-.554688 3.757812-.84375 5.683593-.855469.898438 0 1.792969.0625 2.679688.1875 3.925781.550781 7.875-.832031 10.597656-3.710937 2.78125-2.972657 3.949219-7.105469 3.132813-11.09375-.609375-2.992188-.699219-6.070313-.273438-9.097657 1.488281-10.902343 9.828125-19.605469 20.660157-21.554687 4.964843-.757813 10.042968.078125 14.507812 2.390625 4.917969 2.46875 10.882812 1.355469 14.582031-2.722657 7.609375-8.386718 18.40625-13.164062 29.730469-13.15625 21.972656.417969 39.886719 17.746094 41.027344 39.695313zm0 0"/><path d="m175.734375 51.269531c-10.527344.617188-20.40625 5.28125-27.574219 13.011719-8.136718 8.765625-12.308594 20.492188-11.535156 32.425781 1.503906 22.449219 20.167969 39.882813 42.667969 39.859375h149.671875c11.015625-.023437 21.464844-4.882812 28.578125-13.292968 7.492187-8.847657 10.738281-20.523438 8.894531-31.964844-2.285156-14.675782-12.792969-26.730469-27.019531-30.996094-3.050781-.894531-6.207031-1.398438-9.386719-1.492188.191406-2.984374.085938-5.980468-.316406-8.941406-2.441406-18.425781-16.644532-33.085937-34.984375-36.113281-7.265625-1.117187-14.695313-.230469-21.496094 2.558594-10.632813-10.472657-24.964844-16.339844-39.894531-16.324219-29.277344.386719-53.824219 22.230469-57.605469 51.269531zm101.929687-18.261719c4.460938-2.316406 9.539063-3.152343 14.507813-2.390624 10.828125 1.949218 19.171875 10.652343 20.65625 21.554687.429687 3.027344.335937 6.101563-.273437 9.097656-.8125 3.988281.351562 8.121094 3.132812 11.09375 2.730469 2.863281 6.667969 4.242188 10.589844 3.710938 2.800781-.382813 5.652344-.164063 8.363281.640625 7.847656 2.453125 13.632813 9.128906 14.941406 17.246094 1.078125 6.523437-.75 13.191406-5.007812 18.253906-3.894531 4.578125-9.589844 7.226562-15.601563 7.25h-149.671875c-13.5.03125-24.703125-10.421875-25.601562-23.890625-.523438-7.226563 1.996093-14.339844 6.945312-19.628907 4.515625-4.886718 10.867188-7.667968 17.519531-7.679687h1.878907c6.472656.003906 11.839843-5.015625 12.269531-11.476563 1.128906-21.957031 19.046875-39.304687 41.027344-39.722656 11.332031.003906 22.132812 4.804688 29.722656 13.21875 3.703125 4.082032 9.675781 5.195313 14.601562 2.722656zm0 0"/><path d="m247.464844 213.332031c0 4.714844 3.820312 8.535157 8.53125 8.535157 4.714844 0 8.535156-3.820313 8.535156-8.535157v-8.53125c0-4.714843-3.820312-8.535156-8.535156-8.535156-4.710938 0-8.53125 3.820313-8.53125 8.535156zm0 0"/><path d="m255.996094 179.199219c4.714844 0 8.535156-3.820313 8.535156-8.53125v-8.535157c0-4.710937-3.820312-8.53125-8.535156-8.53125-4.710938 0-8.53125 3.820313-8.53125 8.53125v8.535157c0 4.710937 3.820312 8.53125 8.53125 8.53125zm0 0"/><path d="m247.464844 256c0 4.710938 3.820312 8.535156 8.53125 8.535156 4.714844 0 8.535156-3.824218 8.535156-8.535156v-8.535156c0-4.710938-3.820312-8.53125-8.535156-8.53125-4.710938 0-8.53125 3.820312-8.53125 8.53125zm0 0"/><path d="m170.664062 460.800781h-17.066406c-4.714844 0-8.535156 3.820313-8.535156 8.53125 0 4.714844 3.820312 8.535157 8.535156 8.535157h17.066406c4.710938 0 8.535157-3.820313 8.535157-8.535157 0-4.710937-3.824219-8.53125-8.535157-8.53125zm0 0"/><path d="m221.863281 460.800781h-17.066406c-4.710937 0-8.53125 3.820313-8.53125 8.53125 0 4.714844 3.820313 8.535157 8.53125 8.535157h17.066406c4.714844 0 8.535157-3.820313 8.535157-8.535157 0-4.710937-3.820313-8.53125-8.535157-8.53125zm0 0"/><path d="m273.0625 460.800781h-17.066406c-4.710938 0-8.53125 3.820313-8.53125 8.53125 0 4.714844 3.820312 8.535157 8.53125 8.535157h17.066406c4.714844 0 8.535156-3.820313 8.535156-8.535157 0-4.710937-3.820312-8.53125-8.535156-8.53125zm0 0"/><path d="m358.398438 460.800781h-51.199219c-4.714844 0-8.535157 3.820313-8.535157 8.53125 0 4.714844 3.820313 8.535157 8.535157 8.535157h51.199219c4.710937 0 8.53125-3.820313 8.53125-8.535157 0-4.710937-3.820313-8.53125-8.53125-8.53125zm0 0"/><path d="m358.398438 392.535156h-17.066407c-4.714843 0-8.535156 3.820313-8.535156 8.53125 0 4.714844 3.820313 8.535156 8.535156 8.535156h17.066407c4.710937 0 8.53125-3.820312 8.53125-8.535156 0-4.710937-3.820313-8.53125-8.53125-8.53125zm0 0"/><path d="m204.796875 392.535156h-51.199219c-4.714844 0-8.535156 3.820313-8.535156 8.53125 0 4.714844 3.820312 8.535156 8.535156 8.535156h51.199219c4.714844 0 8.535156-3.820312 8.535156-8.535156 0-4.710937-3.820312-8.53125-8.535156-8.53125zm0 0"/><path d="m153.597656 341.332031h17.066406c4.710938 0 8.535157-3.820312 8.535157-8.53125 0-4.714843-3.824219-8.535156-8.535157-8.535156h-17.066406c-4.714844 0-8.535156 3.820313-8.535156 8.535156 0 4.710938 3.820312 8.53125 8.535156 8.53125zm0 0"/><path d="m204.796875 341.332031h17.066406c4.714844 0 8.535157-3.820312 8.535157-8.53125 0-4.714843-3.820313-8.535156-8.535157-8.535156h-17.066406c-4.710937 0-8.53125 3.820313-8.53125 8.535156 0 4.710938 3.820313 8.53125 8.53125 8.53125zm0 0"/><path d="m255.996094 341.332031h17.066406c4.714844 0 8.535156-3.820312 8.535156-8.53125 0-4.714843-3.820312-8.535156-8.535156-8.535156h-17.066406c-4.710938 0-8.53125 3.820313-8.53125 8.535156 0 4.710938 3.820312 8.53125 8.53125 8.53125zm0 0"/><path d="m307.199219 341.332031h51.199219c4.710937 0 8.53125-3.820312 8.53125-8.53125 0-4.714843-3.820313-8.535156-8.53125-8.535156h-51.199219c-4.714844 0-8.535157 3.820313-8.535157 8.535156 0 4.710938 3.820313 8.53125 8.535157 8.53125zm0 0"/><path d="m426.664062 401.066406c0 4.714844 3.820313 8.535156 8.535157 8.535156h8.53125c4.714843 0 8.535156-3.820312 8.535156-8.535156v-8.53125c0-4.714844-3.820313-8.535156-8.535156-8.535156-4.710938 0-8.53125 3.820312-8.53125 8.535156-4.714844 0-8.535157 3.820313-8.535157 8.53125zm0 0"/><path d="m435.199219 358.398438c0 4.714843 3.820312 8.535156 8.53125 8.535156 4.714843 0 8.535156-3.820313 8.535156-8.535156v-8.53125c0-4.714844-3.820313-8.535157-8.535156-8.535157-4.710938 0-8.53125 3.820313-8.53125 8.535157zm0 0"/><path d="m443.730469 324.265625c4.714843 0 8.535156-3.820313 8.535156-8.53125v-8.535156c0-4.710938-3.820313-8.53125-8.535156-8.53125-4.710938 0-8.53125 3.820312-8.53125 8.53125v8.535156c0 4.710937 3.820312 8.53125 8.53125 8.53125zm0 0"/><path d="m59.730469 401.066406c0 4.714844 3.820312 8.535156 8.535156 8.535156h8.53125c4.714844 0 8.535156-3.820312 8.535156-8.535156 0-4.710937-3.820312-8.53125-8.535156-8.53125 0-4.714844-3.820313-8.535156-8.53125-8.535156-4.714844 0-8.535156 3.820312-8.535156 8.535156zm0 0"/><path d="m59.730469 358.398438c0 4.714843 3.820312 8.535156 8.535156 8.535156 4.710937 0 8.53125-3.820313 8.53125-8.535156v-8.53125c0-4.714844-3.820313-8.535157-8.53125-8.535157-4.714844 0-8.535156 3.820313-8.535156 8.535157zm0 0"/><path d="m68.265625 324.265625c4.710937 0 8.53125-3.820313 8.53125-8.53125v-8.535156c0-4.710938-3.820313-8.53125-8.53125-8.53125-4.714844 0-8.535156 3.820312-8.535156 8.53125v8.535156c0 4.710937 3.820312 8.53125 8.535156 8.53125zm0 0"/><path d="m247.464844 401.066406c0 4.714844-3.820313 8.535156-8.535156 8.535156-4.710938 0-8.53125-3.820312-8.53125-8.535156 0-4.710937 3.820312-8.53125 8.53125-8.53125 4.714843 0 8.535156 3.820313 8.535156 8.53125zm0 0"/><path d="m281.597656 401.066406c0 4.714844-3.820312 8.535156-8.535156 8.535156-4.710938 0-8.53125-3.820312-8.53125-8.535156 0-4.710937 3.820312-8.53125 8.53125-8.53125 4.714844 0 8.535156 3.820313 8.535156 8.53125zm0 0"/><path d="m315.730469 401.066406c0 4.714844-3.820313 8.535156-8.53125 8.535156-4.714844 0-8.535157-3.820312-8.535157-8.535156 0-4.710937 3.820313-8.53125 8.535157-8.53125 4.710937 0 8.53125 3.820313 8.53125 8.53125zm0 0"/><path d="m42.664062 503.464844c0 4.714844 3.820313 8.535156 8.535157 8.535156h409.597656c4.714844 0 8.535156-3.820312 8.535156-8.535156 0-4.710938-3.820312-8.53125-8.535156-8.53125h-59.734375v-85.332032c4.714844 0 8.535156-3.820312 8.535156-8.535156 0-4.710937-3.820312-8.53125-8.535156-8.53125v-76.800781c0-14.140625-11.460938-25.601563-25.597656-25.601563h-110.933594c0-4.710937-3.820312-8.53125-8.535156-8.53125-4.710938 0-8.53125 3.820313-8.53125 8.53125h-110.933594c-14.140625 0-25.601562 11.460938-25.601562 25.601563v76.800781c-4.710938 0-8.53125 3.820313-8.53125 8.53125 0 4.714844 3.820312 8.535156 8.53125 8.535156v85.332032h-59.730469c-4.714844 0-8.535157 3.820312-8.535157 8.53125zm85.332032-128h256v51.203125h-256zm8.535156-68.265625h238.933594c4.710937 0 8.53125 3.820312 8.53125 8.535156v42.664063h-256v-42.664063c0-4.714844 3.820312-8.535156 8.535156-8.535156zm-8.535156 136.535156h256v51.199219h-256zm0 0"/></svg>