<svg height="512pt" viewBox="0 0 512 512" width="512pt" xmlns="http://www.w3.org/2000/svg"><path d="m478.96875 0h-445.953125c-18.203125 0-33.015625 14.8125-33.015625 33.015625v362.957031c0 16.5 12.164062 30.210938 27.992188 32.636719 1.640624.25 3.316406.378906 5.023437.378906h145.960937v26.902344h-22.648437c-15.109375 0-27.398437 12.292969-27.398437 27.402344v16.203125c0 6.894531 5.605468 12.503906 12.5 12.503906h131.902343c4.140625 0 7.5-3.359375 7.5-7.5 0-4.144531-3.359375-7.503906-7.5-7.503906h-129.402343v-13.703125c0-6.835938 5.5625-12.398438 12.398437-12.398438h199.328125c6.835938 0 12.398438 5.5625 12.398438 12.398438v13.703125h-48.382813c-4.144531 0-7.5 3.359375-7.5 7.503906 0 4.140625 3.355469 7.5 7.5 7.5h50.882813c6.894531 0 12.5-5.609375 12.5-12.503906v-16.203125c0-15.109375-12.289063-27.402344-27.398438-27.402344h-22.648438v-26.902344h145.960938c1.707031 0 3.382812-.128906 5.019531-.378906 15.832031-2.425781 27.996094-16.136719 27.996094-32.636719v-362.957031c0-18.203125-14.8125-33.015625-33.015625-33.015625zm-160.964844 455.894531h-124.023437v-26.902343h124.023437zm178.976563-59.921875c0 9.3125-7.101563 16.996094-16.171875 17.921875-.605469.0625-1.21875.09375-1.839844.09375h-445.953125c-.621094 0-1.234375-.03125-1.839844-.09375-9.070312-.925781-16.171875-8.609375-16.171875-17.921875v-28.453125h481.976563zm0-43.453125h-481.976563v-319.503906c0-9.933594 8.078125-18.011719 18.011719-18.011719h445.953125c9.933594 0 18.011719 8.082032 18.011719 18.011719zm0 0"/><path d="m68.007812 301.332031h50.535157c4.140625 0 7.5-3.359375 7.5-7.5 0-4.144531-3.359375-7.503906-7.5-7.503906h-50.535157c-4.140624 0-7.5 3.359375-7.5 7.503906 0 4.140625 3.359376 7.5 7.5 7.5zm0 0"/><path d="m443.972656 286.328125h-50.53125c-4.144531 0-7.5 3.359375-7.5 7.503906 0 4.140625 3.355469 7.5 7.5 7.5h50.53125c4.144532 0 7.503906-3.359375 7.503906-7.5 0-4.144531-3.359374-7.503906-7.503906-7.503906zm0 0"/><path d="m146.089844 301.332031h114.566406c4.144531 0 7.5-3.359375 7.5-7.5 0-4.144531-3.355469-7.503906-7.5-7.503906h-114.566406c-4.144532 0-7.5 3.359375-7.5 7.503906 0 4.140625 3.355468 7.5 7.5 7.5zm0 0"/><path d="m331.644531 301.332031h38.820313c4.144531 0 7.503906-3.359375 7.503906-7.5 0-4.144531-3.359375-7.503906-7.503906-7.503906h-38.820313c-4.144531 0-7.503906 3.359375-7.503906 7.503906 0 4.140625 3.359375 7.5 7.503906 7.5zm0 0"/><path d="m286.289062 301.332031h15.691407c4.144531 0 7.503906-3.359375 7.503906-7.5 0-4.144531-3.359375-7.503906-7.503906-7.503906h-15.691407c-4.140624 0-7.5 3.359375-7.5 7.503906 0 4.140625 3.359376 7.5 7.5 7.5zm0 0"/><path d="m89.535156 317.96875h-21.527344c-4.140624 0-7.5 3.359375-7.5 7.503906 0 4.140625 3.359376 7.5 7.5 7.5h21.527344c4.140625 0 7.5-3.359375 7.5-7.5 0-4.144531-3.359375-7.503906-7.5-7.503906zm0 0"/><path d="m220.601562 317.96875h-13.109374c-4.144532 0-7.503907 3.359375-7.503907 7.503906 0 4.140625 3.359375 7.5 7.503907 7.5h13.109374c4.140626 0 7.5-3.359375 7.5-7.5 0-4.144531-3.359374-7.503906-7.5-7.503906zm0 0"/><path d="m180.246094 317.96875h-64.386719c-4.144531 0-7.503906 3.359375-7.503906 7.503906 0 4.140625 3.359375 7.5 7.503906 7.5h64.386719c4.140625 0 7.5-3.359375 7.5-7.5 0-4.144531-3.359375-7.503906-7.5-7.503906zm0 0"/><path d="m442.085938 317.96875h-95.039063c-4.144531 0-7.503906 3.359375-7.503906 7.503906 0 4.140625 3.359375 7.5 7.503906 7.5h95.039063c4.144531 0 7.503906-3.359375 7.503906-7.5 0-4.144531-3.359375-7.503906-7.503906-7.503906zm0 0"/><path d="m324.257812 317.96875h-79.867187c-4.144531 0-7.503906 3.359375-7.503906 7.503906 0 4.140625 3.359375 7.5 7.503906 7.5h79.867187c4.140626 0 7.5-3.359375 7.5-7.5 0-4.144531-3.359374-7.503906-7.5-7.503906zm0 0"/><path d="m126.347656 103.132812c4.140625 0 7.5-3.359374 7.5-7.5v-10.003906c0-4.140625-3.359375-7.5-7.5-7.5-4.144531 0-7.503906 3.359375-7.503906 7.5v10.003906c0 4.140626 3.359375 7.5 7.503906 7.5zm0 0"/><path d="m153.1875 44.480469h10c4.144531 0 7.5-3.359375 7.5-7.5 0-4.144531-3.355469-7.503907-7.5-7.503907h-10c-4.144531 0-7.503906 3.359376-7.503906 7.503907 0 4.140625 3.359375 7.5 7.503906 7.5zm0 0"/><path d="m126.347656 183.148438c4.140625 0 7.5-3.359376 7.5-7.503907v-10c0-4.144531-3.359375-7.503906-7.5-7.503906-4.144531 0-7.503906 3.359375-7.503906 7.503906v10c0 4.144531 3.359375 7.503907 7.503906 7.503907zm0 0"/><path d="m124.71875 238.425781c-3.964844 1.199219-6.203125 5.390625-5 9.355469 1.539062 5.078125 5.109375 9.441406 9.792969 11.964844 1.132812.609375 2.351562.902344 3.550781.902344 2.671875 0 5.253906-1.429688 6.609375-3.945313 1.96875-3.644531.605469-8.195313-3.042969-10.160156-1.222656-.660157-2.15625-1.796875-2.554687-3.117188-1.203125-3.964843-5.394531-6.199219-9.355469-5zm0 0"/><path d="m126.347656 143.140625c4.140625 0 7.5-3.359375 7.5-7.503906v-10c0-4.144531-3.359375-7.5-7.5-7.5-4.144531 0-7.503906 3.355469-7.503906 7.5v10c0 4.144531 3.359375 7.503906 7.503906 7.503906zm0 0"/><path d="m313.214844 44.480469h10c4.144531 0 7.503906-3.359375 7.503906-7.5 0-4.144531-3.359375-7.503907-7.503906-7.503907h-10c-4.144532 0-7.5 3.359376-7.5 7.503907 0 4.140625 3.355468 7.5 7.5 7.5zm0 0"/><path d="m273.207031 44.480469h10.003907c4.140624 0 7.5-3.359375 7.5-7.5 0-4.144531-3.359376-7.503907-7.5-7.503907h-10.003907c-4.140625 0-7.5 3.359376-7.5 7.503907 0 4.140625 3.359375 7.5 7.5 7.5zm0 0"/><path d="m353.222656 44.480469h10c4.144532 0 7.503906-3.359375 7.503906-7.5 0-4.144531-3.359374-7.503907-7.503906-7.503907h-10c-4.144531 0-7.503906 3.359376-7.503906 7.503907 0 4.140625 3.359375 7.5 7.503906 7.5zm0 0"/><path d="m193.191406 44.480469h10.003906c4.140626 0 7.5-3.359375 7.5-7.5 0-4.144531-3.359374-7.503907-7.5-7.503907h-10.003906c-4.140625 0-7.5 3.359376-7.5 7.503907 0 4.140625 3.359375 7.5 7.5 7.5zm0 0"/><path d="m126.347656 63.125c4.140625 0 7.5-3.359375 7.5-7.5v-5.867188c0-.578124.089844-1.144531.269532-1.679687 1.320312-3.925781-.796876-8.179687-4.722657-9.496094-3.929687-1.320312-8.183593.796875-9.5 4.726563-.695312 2.074218-1.050781 4.246094-1.050781 6.449218v5.867188c0 4.140625 3.359375 7.5 7.503906 7.5zm0 0"/><path d="m233.199219 44.480469h10.003906c4.140625 0 7.5-3.359375 7.5-7.5 0-4.144531-3.359375-7.503907-7.5-7.503907h-10.003906c-4.140625 0-7.5 3.359376-7.5 7.503907 0 4.140625 3.359375 7.5 7.5 7.5zm0 0"/><path d="m126.347656 223.152344c4.140625 0 7.5-3.355469 7.5-7.5v-10c0-4.144532-3.359375-7.503906-7.5-7.503906-4.144531 0-7.503906 3.359374-7.503906 7.503906v10c0 4.144531 3.359375 7.5 7.503906 7.5zm0 0"/><path d="m355.355469 254.667969c0 4.140625 3.359375 7.5 7.5 7.5h10.003906c.503906 0 1-.050781 1.476563-.144531.492187.027343.988281.003906 1.492187-.070313 5.328125-.785156 10.046875-3.601563 13.28125-7.933594 2.480469-3.316406 1.800781-8.019531-1.515625-10.5-3.320312-2.480469-8.019531-1.796875-10.5 1.519531-.847656 1.132813-2.070312 1.867188-3.453125 2.070313-.128906.019531-.257813.042969-.386719.066406-.128906-.007812-.261718-.011719-.394531-.011719h-10.003906c-4.140625 0-7.5 3.359376-7.5 7.503907zm0 0"/><path d="m385.636719 227.578125c4.144531 0 7.503906-3.355469 7.503906-7.5v-10c0-4.144531-3.359375-7.503906-7.503906-7.503906-4.140625 0-7.5 3.359375-7.5 7.503906v10c0 4.144531 3.359375 7.5 7.5 7.5zm0 0"/><path d="m385.636719 187.574219c4.144531 0 7.503906-3.359375 7.503906-7.503907v-10c0-4.144531-3.359375-7.503906-7.503906-7.503906-4.140625 0-7.5 3.359375-7.5 7.503906v10c0 4.144532 3.359375 7.503907 7.5 7.503907zm0 0"/><path d="m385.636719 107.558594c4.144531 0 7.503906-3.359375 7.503906-7.5v-10.003906c0-4.140626-3.359375-7.5-7.503906-7.5-4.140625 0-7.5 3.359374-7.5 7.5v10.003906c0 4.140625 3.359375 7.5 7.5 7.5zm0 0"/><path d="m385.636719 147.566406c4.144531 0 7.503906-3.359375 7.503906-7.503906v-10c0-4.144531-3.359375-7.5-7.503906-7.5-4.140625 0-7.5 3.355469-7.5 7.5v10c0 4.144531 3.359375 7.503906 7.5 7.503906zm0 0"/><path d="m242.835938 247.164062c-4.144532 0-7.503907 3.359376-7.503907 7.503907 0 4.140625 3.359375 7.5 7.503907 7.5h10c4.144531 0 7.503906-3.359375 7.503906-7.5 0-4.144531-3.359375-7.503907-7.503906-7.503907zm0 0"/><path d="m202.828125 247.164062c-4.144531 0-7.5 3.359376-7.5 7.503907 0 4.140625 3.355469 7.5 7.5 7.5h10c4.144531 0 7.503906-3.359375 7.503906-7.5 0-4.144531-3.359375-7.503907-7.503906-7.503907zm0 0"/><path d="m385.636719 67.550781c4.144531 0 7.503906-3.359375 7.503906-7.5v-10.003906c0-4.140625-3.359375-7.5-7.503906-7.5-4.140625 0-7.5 3.359375-7.5 7.5v10.003906c0 4.140625 3.359375 7.5 7.5 7.5zm0 0"/><path d="m340.351562 254.667969c0-4.144531-3.359374-7.503907-7.5-7.503907h-10.003906c-4.140625 0-7.5 3.359376-7.5 7.503907 0 4.140625 3.359375 7.5 7.5 7.5h10.003906c4.140626 0 7.5-3.359375 7.5-7.5zm0 0"/><path d="m292.84375 262.167969c4.144531 0 7.5-3.359375 7.5-7.5 0-4.144531-3.355469-7.503907-7.5-7.503907h-10c-4.144531 0-7.503906 3.359376-7.503906 7.503907 0 4.140625 3.359375 7.5 7.503906 7.5zm0 0"/><path d="m162.820312 247.164062c-4.140624 0-7.5 3.359376-7.5 7.503907 0 4.140625 3.359376 7.5 7.5 7.5h10.003907c4.140625 0 7.5-3.359375 7.5-7.5 0-4.144531-3.359375-7.503907-7.5-7.503907zm0 0"/><path d="m151.105469 77.636719v21.003906c0 4.144531 3.359375 7.5 7.5 7.5 4.144531 0 7.503906-3.355469 7.503906-7.5v-21.003906c0-3.347657 2.722656-6.074219 6.070313-6.074219h167.625c3.347656 0 6.070312 2.726562 6.070312 6.074219v96.3125l-34.847656-39.269531c-2.273438-2.566407-5.546875-4.097657-8.976563-4.199219-3.414062-.105469-6.785156 1.226562-9.210937 3.652343l-22.128906 22.117188-31.261719-35.230469c-2.277344-2.566406-5.546875-4.097656-8.976563-4.199219-3.4375-.105468-6.785156 1.230469-9.210937 3.65625l-55.152344 55.125v-29.777343c0-4.144531-3.359375-7.503907-7.503906-7.503907-4.140625 0-7.5 3.359376-7.5 7.503907v68.183593c0 11.621094 9.453125 21.074219 21.074219 21.074219h167.625c11.621093 0 21.074218-9.453125 21.074218-21.074219v-136.371093c0-11.621094-9.453125-21.074219-21.074218-21.074219h-167.625c-11.621094 0-21.074219 9.453125-21.074219 21.074219zm194.769531 136.371093c0 3.351563-2.722656 6.074219-6.070312 6.074219h-167.625c-3.347657 0-6.070313-2.722656-6.070313-6.074219v-17.191406l63.878906-63.851562 44.074219 49.667968c2.75 3.097657 7.492188 3.382813 10.589844.632813s3.382812-7.492187.632812-10.589844l-4.597656-5.183593 20.878906-20.871094 44.308594 49.933594zm0 0"/></svg>